<?xml version="1.0" encoding="UTF-8"?>
<svg id="icon" xmlns="http://www.w3.org/2000/svg" viewBox="0 0 24 23.98">
  <defs>
    <style>
      .cls-1 {
        fill: #fff;
        stroke-width: 0px;
      }
    </style>
  </defs>
  <polygon class="cls-1" points="1.91 17.3 0 17.3 0 23.98 6.68 23.98 6.68 22.07 1.91 22.07 1.91 17.3"/>
  <polygon class="cls-1" points="22.09 22.07 17.32 22.07 17.32 23.98 24 23.98 24 17.3 22.09 17.3 22.09 22.07"/>
  <polygon class="cls-1" points="17.32 0 17.32 1.91 22.09 1.91 22.09 6.68 24 6.68 24 0 17.32 0"/>
  <polygon class="cls-1" points="0 6.68 1.91 6.68 1.91 1.91 6.68 1.91 6.68 0 0 0 0 6.68"/>
  <path class="cls-1" d="m19.51,6.92c-.05-.04-.11-.07-.17-.09h0l-7.06-2.65c-.18-.06-.38-.06-.55,0l-7.06,2.65h0c-.06.02-.12.05-.17.09-.21.15-.34.38-.34.64v8.73c0,.32.2.61.51.73l7.05,2.75h.02c.09.03.17.05.26.05s.17-.02.26-.05h.02l7.03-2.7c.31-.12.5-.41.5-.73l.03-8.77c0-.26-.13-.5-.34-.64h0Zm-7.51-1.17l4.83,1.81-4.83,1.81-4.83-1.81,4.83-1.81Zm-6.28,2.94l5.49,2.06v7.13l-5.49-2.14v-7.04h0Zm12.52,7.1l-5.47,2.1v-7.14l5.49-2.06-.02,7.1h0Z"/>
</svg>