<?xml version="1.0" encoding="UTF-8"?><svg id="icon" xmlns="http://www.w3.org/2000/svg" width="36" height="36" viewBox="0 0 36 36"><g id="a"><circle cx="18" cy="18" r="18" fill="#c00c00" stroke-width="0"/></g><path d="m28.51,8H7.51c-.83,0-1.5.67-1.5,1.5v15c0,.83.67,1.5,1.5,1.5h9.55c.3.66.58,1.45.91,2.62.61,2.19,3.26,3.38,5.43,3.38,2.53,0,5.35-2.21,5.35-5.38v-.65c.71-.12,1.25-.73,1.25-1.47v-15c0-.83-.67-1.5-1.5-1.5h.01Zm-3.5,13.03h-.76c-.29,0-.43-.05-.49-.08v-4.44c0-1.38-1.12-2.5-2.5-2.5h0c-.67,0-1.29.26-1.77.73-.47.47-.74,1.1-.74,1.77v3.73c-.37-.18-.71-.23-1-.23-.77,0-1.46.39-1.9,1h-4.85v-8.01h14v8.03h.01Zm1.75,5.59c0,2.09-1.95,3.38-3.35,3.38-1.58,0-3.22-.9-3.51-1.92-.79-2.8-1.36-3.73-2.39-5.25-.21-.3-.12-.54-.08-.62s.14-.21.33-.21c.13,0,.4.17.7.64s.87.68,1.4.52c.54-.16.9-.64.9-1.2v-5.46c0-.18.09-.3.15-.36.06-.05.17-.15.35-.15h0c.28,0,.5.23.5.5v4.42c-.02.37.1.92.51,1.36.45.48,1.11.73,1.96.73,0,0,.98.01,1.96.01.25,0,.56,0,.56.91v2.7Zm.25-5.46v-10.16H9.01v12h6.45c.07.33.19.65.39.95.01.02.02.03.03.05h-7.87v-14h20v11.76c-.29-.3-.63-.49-1-.6Z" fill="#fff" stroke-width="0"/></svg>