<?xml version="1.0" encoding="UTF-8"?>
<svg id="a" data-name="Layer 1" xmlns="http://www.w3.org/2000/svg" width="24" height="24" viewBox="0 0 24 24">
  <path d="M22.5,0H1.5C.67285,0,0,.67285,0,1.5v15c0,.82715,.67285,1.5,1.5,1.5H11.0498c.30243,.65594,.58435,1.44562,.91406,2.62207,.61426,2.19434,3.25781,3.37793,5.43262,3.37793,2.53223,0,5.35352-2.20898,5.35352-5.37988v-.64539c.70795-.11987,1.25-.73322,1.25-1.47473V1.5c0-.82715-.67285-1.5-1.5-1.5Zm-3.5,13.02643c-.43752-.00323-.74921-.0069-.75684-.0069-.29102,0-.43164-.04883-.4873-.0752v-4.43848c0-1.37695-1.12012-2.5-2.49805-2.50293h-.00586c-.66699,0-1.29395,.25977-1.7666,.73047-.47461,.47363-.73535,1.10254-.73535,1.77246v3.72852c-.36914-.17969-.71484-.23438-1-.23438-.76538,0-1.45801,.38544-1.90222,1H5V5h14V13.02643Zm1.75,5.59369c0,2.09375-1.95312,3.37988-3.35352,3.37988-1.58203,0-3.2207-.89551-3.50684-1.91699-.78516-2.80371-1.36133-3.72949-2.39355-5.25195-.20605-.30371-.12207-.53711-.07617-.62305,.04102-.07715,.13867-.20801,.33008-.20801,.13379,0,.39844,.16699,.7002,.63574,.30371,.47168,.86914,.68457,1.40234,.52441,.53711-.15723,.89746-.63965,.89746-1.19922v-5.45508c0-.18164,.09277-.30078,.14746-.35645,.05566-.05469,.1748-.14648,.35449-.14648h.00195c.27637,.00098,.50195,.22656,.50195,.50293l.00195,4.4248c-.02539,.36816,.09473,.91992,.50879,1.36328,.44824,.48145,1.11328,.72559,1.96484,.72559,0,0,.98145,.01172,1.95703,.01172,.25,0,.56152,0,.56152,.91016v2.67871Zm.25-5.46405V3H3V15h6.44647c.07397,.32855,.18994,.65271,.39337,.95312l.03143,.04688H2V2H22V13.76086c-.28687-.297-.63116-.49316-1-.6048Z" fill="#fff"/>
</svg>