<?xml version="1.0" encoding="UTF-8"?>
<svg xmlns="http://www.w3.org/2000/svg" version="1.1" viewBox="0 0 24 24">
  <defs>
    <style>
      .cls-1 {
        fill: #888e9a;
      }
    </style>
  </defs>
  <!-- Generator: Adobe Illustrator 28.7.1, SVG Export Plug-In . SVG Version: 1.2.0 Build 142)  -->
  <g>
    <g id="a">
      <path class="cls-1" d="M8,8h-3.4l1.8-1.7c.8-.8,1.9-1.5,3-1.9,4.2-1.5,8.7.7,10.2,4.9l1.9-.7c-1.8-5.2-7.6-7.9-12.8-6.1-1.4.5-2.7,1.3-3.7,2.3l-2,1.8v-3.7H1v7h7v-2Z"/>
      <path class="cls-1" d="M16,14v2h3.4l-1.8,1.7c-3.1,3.1-8.2,3.1-11.3,0-.8-.8-1.5-1.9-1.9-3l-1.9.7c.5,1.4,1.3,2.7,2.4,3.7,2,2,4.5,2.9,7.1,2.9s5.1-1,7-2.9l2-1.8v3.7h2v-7h-7Z"/>
    </g>
  </g>
</svg>