<?xml version="1.0" encoding="UTF-8"?>
<svg xmlns="http://www.w3.org/2000/svg" version="1.1" viewBox="0 0 432 108">
  <defs>
    <style>
      .cls-1 {
        fill: #888e9a;
      }
    </style>
  </defs>
  <!-- Generator: Adobe Illustrator 28.7.1, SVG Export Plug-In . SVG Version: 1.2.0 Build 142)  -->
  <g>
    <g id="a">
      <path class="cls-1" d="M10.3,95.8l-1.3,4.7h388.8l1.3-4.7H10.3Z"/>
      <path class="cls-1" d="M108.6,67.1c-2.6-.4-5.3,1.4-6.6,2.5l.3-2.4h-6.5l-4.3,18.1h6.9v-.3c.7-2.5,2.7-11.1,2.7-11.1,0,0,.9-2.1,3.4-2.1.8,0,1.3.2,1.6.5.6.7.3,1.7.3,1.7-.9,3.9-2.5,10.6-2.5,10.9v.4h6.9l2.7-12.7c.3-1.3.1-2.5-.5-3.3-.8-1.1-2.3-1.8-4.6-2.2Z"/>
      <path class="cls-1" d="M86,67.3l-4.4,18.1h7.4l4.6-18.1s-7.6,0-7.6,0Z"/>
      <path class="cls-1" d="M127.7,67.4c-5.9-.2-12.7,1-13.8,11.8-.1,1.5.4,2.9,1.4,4.1,1.7,1.7,4.4,2.5,6.5,2.5s.3,0,.5,0h.5c3.5-.2,7.8-.4,10.6-5.5l.3-.6h-7.1s0,.3,0,.3c-.4,1.5-2.8,2.2-3.5,2.1-2.3-.2-2.6-1.3-2.5-3.9h13.5v-.3c.6-1.9.8-3.1.8-4.4,0-4.3-4.8-5.8-7.1-5.9ZM121.3,74c.2-.8.9-1.5,1.9-2,1.6-.8,3.6-.8,4.7,0,.7.5,1,1.2.9,2.1,0,0-7.6,0-7.6,0Z"/>
      <path class="cls-1" d="M344.1,55.2l3.4-12.2h-34.8c.3-1,.7-3,1.1-4.6.2-.9.4-1.7.5-2.1h34.6s0-.3,0-.3c.8-2.4,3.1-10,3.2-10.1l.2-.5h-35c.5-1.6,1.3-4.7,1.5-5.7h35.2l3.8-12.2h-54.9l-14.3,47.7h55.5Z"/>
      <path class="cls-1" d="M147.8,79.7c-.4,1.5-2.8,2.2-3.5,2.1-2.3-.2-2.6-1.3-2.5-3.9h13.5v-.3c.6-1.9.8-3.1.8-4.4,0-4.3-4.8-5.8-7.1-5.9-5.9-.2-12.7,1-13.8,11.8-.1,1.5.4,2.9,1.4,4.1,1.7,1.7,4.4,2.5,6.5,2.5s.3,0,.5,0h.5c3.5-.2,7.8-.4,10.6-5.5l.3-.6h-7.1s0,.3,0,.3h0ZM144.4,71.7c1.6-.8,3.6-.8,4.7,0,.7.5,1,1.2.9,2.1h-7.6c.2-.9.9-1.6,1.9-2.1h0Z"/>
      <path class="cls-1" d="M86.3,65.4h7.7l1.1-4.6h-7.7s-1.1,4.6-1.1,4.6Z"/>
      <path class="cls-1" d="M171.6,72.7v-.4c.1,0,.8-2.2,1.3-4.5v-.3c0,0-.3-.1-.3-.1,0,0-1.3-.4-3.8.4-1.1.4-2.1,1.1-2.9,1.8l.6-2.2h-7.4s0,.4,0,.4c0,.6-2.5,10.5-4.1,17.1v.5c-.1,0,7.2,0,7.2,0l2.5-10.8c1.5-3.5,6.1-2,6.3-1.9h.4q0,.1,0,.1Z"/>
      <path class="cls-1" d="M110.6,56c1.4.3,3.8.4,6.8.4s7.1-.2,10.7-.6c24.9-3,29.6-21.8,34.2-40,.6-2.6,1.3-5.2,2-7.7v-.5c.1,0-18.9,0-18.9,0v.3c-1.7,4.8-2.8,9.6-3.9,13.8-3.3,13.6-5.7,23.4-19.2,23.4s-9.1-2.2-9.1-6.7,6.3-22.4,8.7-30.2l.2-.5h-19.4l-9.2,33.1c-.7,8.4,4.3,12.8,17.1,15.4h0Z"/>
      <path class="cls-1" d="M45.1,37.8h24.9l-5.6,17.7h18.5l14.3-48.1h-18.2l-4.8,16.2h-24.9l4.7-16.2h-18.6l-14.5,48.1h19s5.1-17.7,5.1-17.7Z"/>
      <path class="cls-1" d="M57.9,69.7c-.8-1.1-2.3-1.8-4.6-2.2-2.6-.4-5.1,1.3-6.4,2.4l.5-2.4h-7.1l-4.7,17.8h7.7v-.3c.7-2.5,2.5-10.7,2.5-10.8,0,0,.9-2.1,3.4-2.1.8,0,1.3.2,1.6.5.6.7.3,1.7.3,1.7-.9,3.8-2.4,10.3-2.4,10.6v.4h6.9l2.6-12.4c.3-1.3.1-2.5-.5-3.3Z"/>
      <path class="cls-1" d="M84,67.8v-.5c.1,0-6.9,0-6.9,0l-.5,1.4c-.8-.5-2.5-1.4-5.2-1.5-4.2-.1-6.9,1.6-8.5,3.1-2.1,2.1-3.3,5-3.2,7.9,0,4.4,2.7,6.9,7.4,6.9s4.5-1.2,5.6-1.9c-.8,3.3-2,4.6-4.3,4.8-1.9.1-3.4-.6-3.5-1.9v-.3s-6.8,0-6.8,0v.4c0,0,.4,5.6,8.1,5.8.3,0,.7,0,1,0,10.7,0,11.7-4,14.4-15.1.6-2.6,1.4-5.6,2.3-9.1ZM74.1,76.8c-1,3.5-2.4,4.6-4.9,4.1-1.6-.4-2.3-1.8-2-4.4.2-1.5.7-4.1,2.3-5.4.6-.4,1.3-.7,2.1-.7s.5,0,.8,0c.7.1,1.3.5,1.7,1.1.7,1.1.8,3,.2,5.2h0Z"/>
      <path class="cls-1" d="M23.3,76.1h12.6l1.4-5.5h-12.5l1.4-4.7h12.9l1.4-5.1h-20.6l-6.7,24.6h20.8l1.2-4.9h-13s1.2-4.3,1.2-4.3Z"/>
      <path class="cls-1" d="M275.5,67c-3.8,0-7.1,1.2-9.5,3.5-2.2,2.1-3.4,5.1-3.4,8.2s3.3,6.8,8.6,6.8,8-1.2,10.3-3.5c2-2,3.1-4.9,3.1-8.2,0-6.1-4.5-6.6-9.1-6.7h0ZM276.7,77c-1.1,2.8-2.2,4.3-5,4.1-.7,0-1.3-.4-1.7-.9-.6-.9-.7-2.3-.3-4,.9-3.3,2-5.4,4.7-5.4s.3,0,.5,0c.9,0,1.5.5,1.9,1.1.7,1.1.7,3-.2,5.2Z"/>
      <path class="cls-1" d="M408.7,82c0-.6-.4-.9-1.1-.9h-1.3v3.3h.5v-1.4h.5l.9,1.4h.5l-.9-1.4c.5,0,.9-.3.9-.9h0ZM407.3,82.5h-.5v-1h.7c.3,0,.7,0,.7.5s-.4.5-.9.5Z"/>
      <path class="cls-1" d="M382.2,67.1c-2.6-.4-5.3,1.4-6.6,2.5l.3-2.4h-6.5l-4.3,18.1h6.9v-.3c.7-2.5,2.7-11.1,2.7-11.1,0,0,.9-2.1,3.4-2.1.7,0,1.3.2,1.6.5.6.7.3,1.7.3,1.7-.9,3.9-2.5,10.6-2.5,10.9v.4h6.9l2.7-12.7c.3-1.3.1-2.5-.5-3.3-.8-1.1-2.3-1.8-4.6-2.2Z"/>
      <path class="cls-1" d="M358.4,66.7h-.7c-9.3-.6-10.2,5.1-10.2,5.1v.5c0,0,6.2-.1,6.2-.1v-.4s0-.4.4-.7c.5-.5,1.5-.7,2.8-.6.4,0,.6.1.8.4.2.2.4.8,0,2.1-1,0-2,0-3.2,0-3.4,0-7,0-9,2.1-1.1,1.1-1.6,2.7-1.6,4.9,0,3.4,2.5,4.9,4.8,5.1,3.7.4,5.4-.5,6.9-1.6-.3.7-.5,1.2-.3,1.5,0,.2.3.3.5.3h6.4v-.3c.6-3.1,1.3-5.5,1.8-7.5.6-2.4,1.1-4.3,1.2-6.1.2-4.2-1.8-4.3-6.7-4.6h0ZM356.7,79.3c-.4,1.5-2.7,2.4-4.5,2.1-.8-.1-2.1-.6-2-2.2,0-1.1.4-1.9,1.2-2.5,1.1-.9,2.8-1.1,4.2-1.1s1.4,0,1.8.1c-.1.7-.5,2.3-.8,3.5Z"/>
      <path class="cls-1" d="M420.9,11.4c-1.6-1.9-4.7-4.1-10.9-3.9-3.3,0-46.6,0-46.6,0l-14.2,47.9h19.2l5.2-15.9h16.6c1.3,0,2.6,0,3.1.6.3.4.3,1,0,1.8l-3.8,13.2h21.9v-.3c.4-1.2,2.9-12,3-12.8.3-3.3,0-5.4-1.3-6.7-1.3-1.4-3.5-1.9-6.4-2,0,0,0,0,0,0,5.4-1.1,13.6-2.8,15.9-14.1.6-2.9,0-5.7-1.9-7.9h0ZM403.8,22.9c-.4,3.9-5.3,4.5-8.2,4.5h-18.6l2.3-7.8h19.9c1.8,0,3.2.4,3.9,1.3.7.8.7,1.8.7,2.1Z"/>
      <path class="cls-1" d="M337.3,66.9c-3.3,0-5.6,1-6.8,1.8l.3-1.3h-7.6l-5.8,23.7h7.5l2-7.6c.9,1,3,2.7,6.6,2.1,2.9-.5,8-2.3,9.7-9.3.5-2.1.3-5.2-1.2-7.2-1.1-1.4-2.7-2.2-4.8-2.2h0ZM336.3,77.6c-.9,2.5-2.1,4-4.8,3.8-.7,0-1.3-.4-1.7-.9-.6-.9-.7-2.3-.3-4,.9-3.3,2-5.4,4.7-5.4s.3,0,.5,0c.8,0,1.4.4,1.8,1,.8,1.2.7,3.2-.1,5.5h0Z"/>
      <path class="cls-1" d="M398.7,76.5l-1.7-9.1h-7.2l2.8,17.6-4.6,6.1h7l16.6-23.7h-6.7l-6.2,9.1Z"/>
      <path class="cls-1" d="M407.4,79.9c-1.5,0-2.8,1.2-2.8,2.8s1.3,2.8,2.8,2.8,2.8-1.2,2.8-2.8-1.3-2.8-2.8-2.8ZM407.4,85.1c-1.3,0-2.3-1-2.3-2.4s1-2.4,2.3-2.4,2.3,1,2.3,2.4c0,1.4-1,2.4-2.3,2.4Z"/>
      <path class="cls-1" d="M220.2,68.6c-.8-.5-2.5-1.4-5.2-1.5-4.2-.1-6.9,1.6-8.5,3.1-2.1,2.1-3.3,5-3.2,7.9,0,4.4,2.7,6.9,7.4,6.9s4.5-1.2,5.6-1.9c-.8,3.3-2,4.6-4.3,4.8-1.9.1-3.4-.6-3.5-1.9v-.3s-6.8,0-6.8,0v.4c0,0,.4,5.6,8.1,5.8.3,0,.7,0,1,0,10.7,0,11.7-4,14.4-15.1.6-2.6,1.4-5.6,2.3-9.1v-.5c.1,0-6.9,0-6.9,0,0,0-.5,1.3-.5,1.4ZM217.8,76.7c-1,3.5-2.4,4.6-4.9,4.1-1.6-.4-2.3-1.8-2-4.4.2-1.5.7-4.1,2.3-5.4.6-.4,1.3-.7,2.1-.7s.5,0,.8,0c.7.1,1.3.5,1.7,1.1.7,1.1.8,3,.1,5.2Z"/>
      <path class="cls-1" d="M201.9,69.3c-.8-1.1-2.3-1.8-4.6-2.2-2.6-.4-5.3,1.4-6.6,2.5l.3-2.4h-6.5l-4.3,18.1h6.9v-.3c.7-2.5,2.7-11.1,2.7-11.1,0,0,.9-2.1,3.4-2.1.8,0,1.3.2,1.6.5.6.7.3,1.7.3,1.7-.9,3.9-2.5,10.6-2.5,10.9v.4h6.9l2.7-12.7c.3-1.3.1-2.5-.5-3.3h0Z"/>
      <path class="cls-1" d="M319.9,71.2c0-1.7-.8-3.8-4.7-3.9-4.7-.2-7.3,1.7-8.3,2.6-.4-.9-1.5-2.4-4.2-2.5-3.3-.1-5.6,1.1-6.7,2l.5-2h-8.2l-4.2,17.9h8.1l2.7-11.2c0,0,.3-2.1,3-2,.9,0,1.5.3,1.9.7.4.5.3,1.2.3,1.2l-2.5,11.3h7.1l2.9-11.1c0,0,.3-2.1,2.8-2.1s.1,0,.2,0c.9,0,1.5.3,1.8.7.5.6.4,1.3.4,1.3l-2.7,11.2h6.8l3.2-14s0,0,0,0Z"/>
      <path class="cls-1" d="M183.7,60.7h-7.7l-1.1,4.6h7.7l1.1-4.6h0Z"/>
      <path class="cls-1" d="M174.6,67.2l-4.4,18.1h7.4l4.6-18.1h-7.6Z"/>
      <path class="cls-1" d="M253.2,76.6c-1.3,2.4-2.9,3.4-5.6,3.5-2.5,0-4.2-1.5-4.4-4.1-.2-1.9,1-7,3.7-9.6,1.3-1.3,2.9-1.9,4.5-1.7,3.2.3,3.4,1.4,3.7,2.7v.6h8.2v-.3c0,0,.9-6.7-6.7-7.8-6.4-.9-11.5,0-15.1,2.9-4.4,3.5-5.7,9.1-6,13.2-.2,2.6.5,4.7,2,6.3,1.7,1.9,4.5,3,7.8,3.2.4,0,.8,0,1.3,0,8.1,0,12.8-2.8,14.6-8.7l.2-.5h-8v.2q-.1,0-.1,0Z"/>
      <path class="cls-1" d="M205.6,28.6l-13.1-21.1h-21.9l-14.5,48.1h20.2l6.6-23.1,14.7,23.1h20.7l13.9-48.1h-20l-6.6,21.1h0Z"/>
      <path class="cls-1" d="M243.9,55.6h20l9.7-33.3h20l4.4-14.8h-61l-4.6,15h21.2l-9.7,33.1h0Z"/>
    </g>
  </g>
</svg>